<svg xmlns="http://www.w3.org/2000/svg" viewBox="0 0 864.37 182.98"><defs><style>.cls-1{fill:#fff;}.cls-2{fill:#d1a71f;}</style></defs><title>LogoQuiz_logo</title><g id="Capa_2" data-name="Capa 2"><g id="Capa_1-2" data-name="Capa 1"><path class="cls-1" d="M93.51,144.8H0V11.23H26.73V118.07H93.51Z"/><path class="cls-1" d="M198.58,94a53.7,53.7,0,0,1-4,20.81,51.86,51.86,0,0,1-10.9,16.67,50.88,50.88,0,0,1-16.16,11.09,50.6,50.6,0,0,1-39.67,0,51.06,51.06,0,0,1-27.15-27.76,53.7,53.7,0,0,1-4-20.81,54.6,54.6,0,0,1,4-21.06,51.38,51.38,0,0,1,10.94-16.71,50.8,50.8,0,0,1,16.21-11,49.31,49.31,0,0,1,19.79-4A52.12,52.12,0,0,1,167.51,45a47.85,47.85,0,0,1,16.16,10.71,50.59,50.59,0,0,1,10.9,16.67A56.43,56.43,0,0,1,198.58,94ZM173,94a29.59,29.59,0,0,0-2-11.14,26.45,26.45,0,0,0-5.45-8.56,23.57,23.57,0,0,0-8-5.5,26.25,26.25,0,0,0-19.66,0,23.13,23.13,0,0,0-8,5.5,26.06,26.06,0,0,0-5.35,8.56,30.19,30.19,0,0,0-2,11.14,28.69,28.69,0,0,0,2,10.71,26.85,26.85,0,0,0,5.35,8.57,25,25,0,0,0,8,5.72,23.46,23.46,0,0,0,9.83,2.1,24.83,24.83,0,0,0,9.83-2,24.41,24.41,0,0,0,8-5.49,25.87,25.87,0,0,0,5.45-8.57A29.6,29.6,0,0,0,173,94Z"/><path class="cls-1" d="M309.23,132.22a49,49,0,0,1-4,19.75,51.24,51.24,0,0,1-10.94,16.11A52,52,0,0,1,278.07,179a49.33,49.33,0,0,1-19.79,4l-12.76-.18V157.37l12.57.19A29.76,29.76,0,0,0,268.25,156a20.52,20.52,0,0,0,11.69-10.29,38.89,38.89,0,0,0,2.74-7.27,11.17,11.17,0,0,1-4.28,4,30.24,30.24,0,0,1-6.19,2.52,40.66,40.66,0,0,1-7.08,1.35c-2.46.24-4.74.37-6.85.37A53.76,53.76,0,0,1,238.49,143a47.29,47.29,0,0,1-27.15-26.92,57.79,57.79,0,0,1-4-22.07,54.31,54.31,0,0,1,4-21,52,52,0,0,1,10.94-16.77,50.54,50.54,0,0,1,16.21-11.08,49.34,49.34,0,0,1,19.79-4,39,39,0,0,1,9.59,1.21,49.69,49.69,0,0,1,9.22,3.36,56.66,56.66,0,0,1,8.53,5,69.58,69.58,0,0,1,7.59,6.24l9.87-11.83h6.15ZM283.61,94a26.34,26.34,0,0,0-2-10.11,28.82,28.82,0,0,0-5.45-8.66,27.09,27.09,0,0,0-8.05-6.06,21.9,21.9,0,0,0-9.83-2.28,27.21,27.21,0,0,0-9.83,1.77,22.42,22.42,0,0,0-8,5.22,24.46,24.46,0,0,0-5.35,8.52,32,32,0,0,0-2,11.6,30.36,30.36,0,0,0,2,11.22,25.73,25.73,0,0,0,5.35,8.52,23.41,23.41,0,0,0,8,5.45,25.51,25.51,0,0,0,9.83,1.91,21.9,21.9,0,0,0,9.83-2.28,26.93,26.93,0,0,0,8.05-6.06,28.82,28.82,0,0,0,5.45-8.66A26.33,26.33,0,0,0,283.61,94Z"/><path class="cls-1" d="M425,94a53.69,53.69,0,0,1-4,20.81,51.86,51.86,0,0,1-10.9,16.67,51,51,0,0,1-16.16,11.09,50.62,50.62,0,0,1-39.68,0,51.15,51.15,0,0,1-27.15-27.76,53.69,53.69,0,0,1-4-20.81,54.59,54.59,0,0,1,4-21.06,51.57,51.57,0,0,1,10.95-16.71,50.76,50.76,0,0,1,16.2-11,49.39,49.39,0,0,1,19.8-4A52.15,52.15,0,0,1,393.94,45,48,48,0,0,1,410.1,55.71,50.59,50.59,0,0,1,421,72.38,56.43,56.43,0,0,1,425,94Zm-25.61,0a29.78,29.78,0,0,0-2-11.14,26.62,26.62,0,0,0-5.45-8.56,23.51,23.51,0,0,0-8.06-5.5,26.22,26.22,0,0,0-19.65,0,23,23,0,0,0-8,5.5,26.24,26.24,0,0,0-5.36,8.56A30.39,30.39,0,0,0,348.91,94a28.88,28.88,0,0,0,1.95,10.71,27,27,0,0,0,5.36,8.57,24.92,24.92,0,0,0,8,5.72,23.42,23.42,0,0,0,9.83,2.1,24.78,24.78,0,0,0,9.82-2,24.35,24.35,0,0,0,8.06-5.49,26,26,0,0,0,5.45-8.57A29.8,29.8,0,0,0,399.39,94Z"/><path class="cls-1" d="M660.74,133.15a68.1,68.1,0,0,1-6.56,5.27,50.21,50.21,0,0,1-7.31,4.28,45.89,45.89,0,0,1-7.87,2.89,32.37,32.37,0,0,1-8.25,1.07,46,46,0,0,1-17.32-3.26,42.08,42.08,0,0,1-23.8-23.89,51,51,0,0,1-3.49-19.33V45h25.33v55.14a24.56,24.56,0,0,0,1.54,9,19.61,19.61,0,0,0,4.14,6.66,17.42,17.42,0,0,0,6.1,4.1,20,20,0,0,0,7.5,1.4,15.86,15.86,0,0,0,7.41-1.82,20.72,20.72,0,0,0,6.1-4.8,23.08,23.08,0,0,0,4.1-6.75,21.09,21.09,0,0,0,1.49-7.78V45h25.42V144.8h-6.14Z"/><path class="cls-1" d="M724.64,17.94a16.25,16.25,0,0,1-1.35,6.61,17,17,0,0,1-3.68,5.36,17.8,17.8,0,0,1-5.45,3.63,17.1,17.1,0,0,1-13.32,0,17,17,0,0,1-9-9,16.25,16.25,0,0,1-1.35-6.61,16.37,16.37,0,0,1,1.35-6.57,16.91,16.91,0,0,1,9-9,17.1,17.1,0,0,1,13.32,0A17.8,17.8,0,0,1,719.61,6a16.85,16.85,0,0,1,3.68,5.4A16.37,16.37,0,0,1,724.64,17.94ZM720.26,144.8H694.65V45h25.61Z"/><path class="cls-1" d="M817.5,144.8H734.33l42-74.24h-42V45.23H817.5l-42,74.23h42Z"/><path class="cls-1" d="M503.57,9.46a69.07,69.07,0,1,0,69.06,69.07A69.07,69.07,0,0,0,503.57,9.46Zm0,111.59a42.52,42.52,0,1,1,42.52-42.52A42.52,42.52,0,0,1,503.57,121.05Z"/><path class="cls-1" d="M442.4,3A178,178,0,0,1,476,39.77c9.89,14.62,17.16,30.65,23.44,47.09,11.21,29.29,22.8,58.51,33.5,88,1.33,3.65,8.65,5.43,11.92,6.2,1.3.3,9.57,1.95,8.36-1.39C547.77,164.72,541.83,150,536,135.17c-5.88-15-11.21-30.22-17-45.25-12.63-32.64-30.86-61.66-57.94-84.21A27.5,27.5,0,0,0,447.42.07c-1.54-.21-8.73-.15-5,2.94Z"/><path class="cls-1" d="M449.32,130.53c18.14-15.48,38.42-28.63,58.82-40.9,20.64-12.41,41.93-24.39,64.35-33.3,11.48-4.57.23-20.82-10.07-16.73C539.54,48.7,517.81,61,496.78,73.69c-21.27,12.85-42.53,26.41-61.47,42.57-9,7.71,5.51,21.53,14,14.27Z"/><circle class="cls-2" cx="847.28" cy="127.71" r="17.09"/></g></g></svg>